{"title":"IMAX Ultimate G's: Zac's Flying Dream 3D (Stereoscopic S.B.S)","uid":6671790,"size":3109043476,"categoryP":"video","categoryS":"3d","magnet":"?xt=urn:btih:7215e0c198018b0a48ea22f08a75ca8383379ef1&amp;dn=IMAX+Ultimate+G%5C%27s%3A+Zac%5C%27s+Flying+Dream+3D+%28Stereoscopic+S.B.S%29&amp;tr=udp%3A%2F%2Ftracker.openbittorrent.com%3A80&amp;tr=udp%3A%2F%2Fopen.demonii.com%3A1337&amp;tr=udp%3A%2F%2Ftracker.coppersurfer.tk%3A6969&amp;tr=udp%3A%2F%2Fexodus.desync.com%3A6969","seeders":0,"leechers":0,"uploader":"L3G3ND","files":2,"time":1315901858,"description":"This is a stereoscopic 3D rip of IMAX Ultimate G's: Zac's Flying Dream, for new 3D TVs or computers with Nvidia 3D Vision. Tested with Stereoscopic Player. Enjoy!\n\nTitle: Ultimate G's: Zac's Flying Dream (2000)\nRated: Not Rated\nRuntime: 37 min\nGenre: Short | Documentary\n\nIMDB Page: http://www.imdb.com/title/tt0240143/\n\nGeneral\nUnique ID : 173609093126295405239296946408172726193 (0x829BE525BB38A8E28B753573C8F2A7B1)\nComplete name : [filepath]\\IMAX Ultimate G's - Zac's Flying Dream 3D.mkv\nFormat : Matroska\nFile size : 2.90 GiB\nDuration : 37mn 13s\nOverall bit rate : 11.1 Mbps\nEncoded date : UTC 2010-12-11 17:09:16\nWriting application : mkvmerge v4.3.0 ('Escape from the Island') gemaakt op Sep 5 2010 10:30:51\nWriting library : libebml v1.0.0 + libmatroska v1.0.0\n\nVideo\nID : 1\nFormat : AVC\nFormat/Info : Advanced Video Codec\nFormat profile : &lt;a class=&quot;__cf_email__&quot; href=&quot;/cdn-cgi/l/email-protection&quot; data-cfemail=&quot;155d7c727d5559213b25&quot;&gt;[email&amp;#160;protected]&lt;/a&gt;&lt;script data-cfhash='f9e31' type=&quot;text/javascript&quot;&gt;\n/* &lt;![CDATA[ */!function(){try{var t=&quot;currentScript&quot;in document?document.currentScript:function(){for(var t=document.getElementsByTagName(&quot;script&quot;),e=t.length;e--;)if(t[e].getAttribute(&quot;data-cfhash&quot;))return t[e]}();if(t&amp;&amp;t.previousSibling){var e,r,n,i,c=t.previousSibling,a=c.getAttribute(&quot;data-cfemail&quot;);if(a){for(e=&quot;&quot;,r=parseInt(a.substr(0,2),16),n=2;a.length-n;n+=2)i=parseInt(a.substr(n,2),16)^r,e+=String.fromCharCode(i);e=document.createTextNode(e),c.parentNode.replaceChild(e,c)}t.parentNode.removeChild(t);}}catch(u){}}()/* ]]&gt; */&lt;/script&gt;\nFormat settings, CABAC : Yes\nFormat settings, ReFrames : 4 frames\nCodec ID : V_MPEG4/ISO/AVC\nDuration : 37mn 13s\nBit rate : 9 403 Kbps\nNominal bit rate : 10 000 Kbps\nWidth : 1 920 pixels\nHeight : 1 080 pixels\nDisplay aspect ratio : 16:9\nFrame rate mode : Variable\nFrame rate : 23.976 fps\nColor space : YUV\nChroma subsampling : 4:2:0\nBit depth : 8 bits\nScan type : Progressive\nBits/(Pixel*Frame) : 0.189\nStream size : 2.45 GiB (84%)\nWriting library : x264 core 107 r1745 4785e8e\n\nAudio\nID : 2\nFormat : DTS\nFormat/Info : Digital Theater Systems\nCodec ID : A_DTS\nDuration : 37mn 13s\nBit rate mode : Constant\nBit rate : 1 510 Kbps\nChannel(s) : 6 channels\nChannel positions : Front: L C R, Side: L R, LFE\nSampling rate : 48.0 KHz\nBit depth : 24 bits\nCompression mode : Lossy\nStream size : 402 MiB (14%)\n\n","torrent":{"xt":"urn:btih:7215e0c198018b0a48ea22f08a75ca8383379ef1","amp;dn":"IMAX+Ultimate+G%5C%27s%3A+Zac%5C%27s+Flying+Dream+3D+%28Stereoscopic+S.B.S%29","amp;tr":["udp%3A%2F%2Ftracker.openbittorrent.com%3A80","udp%3A%2F%2Fopen.demonii.com%3A1337","udp%3A%2F%2Ftracker.coppersurfer.tk%3A6969","udp%3A%2F%2Fexodus.desync.com%3A6969"],"infoHash":"7215e0c198018b0a48ea22f08a75ca8383379ef1","infoHashBuffer":{"type":"Buffer","data":[114,21,224,193,152,1,139,10,72,234,34,240,138,117,202,131,131,55,158,241]},"announce":[],"urlList":[]}}